<?xml version="1.0" standalone="no"?>
<!DOCTYPE svg PUBLIC "-//W3C//DTD SVG 20010904//EN"
 "http://www.w3.org/TR/2001/REC-SVG-20010904/DTD/svg10.dtd">
<svg version="1.0" xmlns="http://www.w3.org/2000/svg"
 width="1280.000000pt" height="330.000000pt" viewBox="0 0 1280.000000 330.000000"
 preserveAspectRatio="xMidYMid meet">

<g transform="translate(0.000000,330.000000) scale(0.100000,-0.100000)"
fill="#000000" stroke="none">
<path d="M9247 3028 c-7 -4 -20 -5 -29 -2 -10 3 -18 0 -18 -6 0 -7 -8 -9 -19
-5 -11 3 -22 1 -25 -4 -4 -6 -13 -8 -20 -5 -7 3 -38 -5 -70 -16 -31 -12 -62
-20 -69 -17 -6 2 -26 -2 -44 -10 -18 -7 -39 -10 -47 -7 -9 3 -16 1 -16 -4 0
-6 -6 -12 -14 -14 -19 -4 -106 -107 -145 -172 -74 -123 -119 -321 -106 -468
l7 -76 -44 -31 c-205 -147 -316 -243 -360 -310 -32 -51 -35 -79 -12 -122 35
-68 153 -85 358 -53 103 16 136 32 136 66 0 34 -40 42 -125 24 -92 -19 -246
-21 -263 -4 -7 7 -12 20 -12 30 0 26 79 108 175 183 138 107 185 130 185 91 0
-28 81 -176 133 -242 168 -214 465 -339 722 -305 443 59 752 420 733 855 l-4
98 60 41 c103 68 218 162 274 221 145 153 94 256 -127 256 -93 0 -247 -24
-268 -42 -20 -16 -15 -56 7 -68 14 -7 32 -8 58 -1 66 17 236 32 267 23 22 -6
31 -15 33 -35 3 -22 -11 -41 -75 -105 -43 -43 -105 -98 -139 -124 -53 -40
-286 -188 -298 -188 -2 0 -79 -36 -172 -81 -92 -44 -177 -85 -190 -89 -23 -9
-17 -19 -102 160 -26 53 -92 51 -92 -3 0 -11 50 -133 111 -271 61 -138 115
-263 119 -278 9 -31 5 -36 -60 -63 -62 -26 -73 -35 -60 -50 14 -16 22 -57 10
-50 -4 3 -10 0 -12 -5 -2 -6 -10 -12 -18 -14 -8 -2 -22 -6 -30 -9 -50 -19
-127 -27 -179 -17 -54 10 -146 39 -127 40 6 0 -5 11 -22 24 -63 46 -88 80
-142 193 -68 142 -75 216 -29 322 37 88 90 126 311 224 217 96 266 110 346 96
54 -8 127 -44 152 -73 7 -9 20 -16 29 -16 19 0 138 64 233 126 l69 44 -31 58
c-41 77 -87 132 -111 132 -12 0 -19 7 -19 18 0 26 -34 54 -71 58 -18 2 -37 8
-44 14 -6 5 -25 9 -41 9 -16 -1 -52 6 -80 14 -113 33 -246 49 -392 46 -79 -2
-149 -7 -155 -11z m744 -730 c16 -62 4 -150 -32 -227 -17 -36 -36 -77 -43 -90
-20 -44 -115 -63 -114 -22 0 9 -22 70 -50 136 -32 76 -47 124 -41 130 11 12
238 113 256 114 7 1 17 -18 24 -41z"/>
<path d="M1309 2713 c-4 -120 13 -234 52 -354 78 -239 282 -468 541 -609 40
-22 78 -40 84 -40 6 0 16 30 23 68 7 37 22 111 32 164 11 53 20 115 22 137 1
23 6 41 10 41 5 0 6 3 3 8 -4 7 -1 25 19 132 3 19 8 53 9 76 2 23 7 47 11 55
7 12 6 12 -7 1 -9 -8 -15 -19 -12 -27 3 -7 -5 -20 -17 -29 -23 -16 -39 -13
-39 7 0 7 4 6 10 -3 7 -11 10 -11 10 -2 0 7 4 11 9 7 5 -3 13 0 17 6 4 8 3 9
-4 5 -7 -4 -12 -1 -12 6 0 9 -3 9 -10 -2 -8 -13 -14 -8 -12 11 1 3 -6 6 -13 6
-11 0 -12 -4 -4 -14 14 -17 -2 -17 -21 0 -7 6 -3 -4 10 -23 24 -35 24 -35 1
-16 -21 19 -21 19 -15 1 5 -13 4 -16 -5 -11 -6 4 -11 4 -9 -1 1 -4 -6 -26 -15
-47 -10 -22 -15 -41 -12 -44 2 -3 -4 -17 -14 -31 -10 -14 -16 -32 -14 -39 3
-7 -3 -20 -13 -28 -11 -9 -12 -12 -4 -8 10 5 9 1 -4 -14 -10 -12 -16 -28 -13
-37 4 -8 2 -15 -3 -15 -10 0 -14 15 -11 34 1 5 -4 4 -12 -2 -10 -9 -18 -8 -33
3 -18 14 -18 14 5 10 13 -2 21 -1 17 2 -12 12 -40 12 -48 0 -10 -15 -5 23 4
39 4 6 1 11 -7 11 -8 0 -12 -4 -9 -9 3 -4 0 -8 -6 -8 -6 0 -8 -5 -4 -12 4 -6
3 -8 -3 -5 -5 3 -8 20 -7 37 l2 32 -23 -22 c-17 -16 -25 -18 -30 -9 -6 8 -4
10 5 4 10 -6 12 -4 7 9 -4 9 -3 15 2 12 5 -3 15 2 22 12 12 15 12 16 -2 4 -13
-10 -18 -10 -28 1 -6 8 -8 16 -6 19 3 3 -4 5 -15 4 -11 0 -20 -4 -20 -8 0 -5
0 -11 0 -15 0 -5 4 -2 9 6 5 8 11 9 15 3 12 -20 -23 -20 -41 0 -10 12 -12 18
-5 14 15 -9 17 30 2 39 -6 4 -7 11 -4 17 5 7 2 8 -5 3 -9 -5 -10 -10 -2 -18 6
-6 11 -15 11 -20 0 -5 -18 8 -40 29 -22 21 -40 44 -40 52 0 7 -4 11 -9 7 -5
-3 -13 5 -16 17 -4 13 -19 39 -34 58 -14 19 -26 37 -27 40 -1 7 -20 53 -43
103 -11 23 -23 55 -26 70 -4 15 -11 30 -16 33 -5 3 -9 10 -9 15 0 6 6 7 13 3
7 -5 6 0 -3 11 -8 10 -14 20 -12 22 1 1 1 3 0 2 -2 0 -16 4 -31 10 -22 9 -27
8 -22 -2 4 -6 -1 -3 -11 8 -16 20 -16 20 -11 -5 6 -24 5 -24 -8 -6 -8 10 -12
22 -10 27 3 4 1 10 -5 14 -6 4 -10 -9 -11 -32z m462 -576 c-10 -9 -11 -8 -5 6
3 10 9 15 12 12 3 -3 0 -11 -7 -18z m106 -89 c-3 -8 -6 -5 -6 6 -1 11 2 17 5
13 3 -3 4 -12 1 -19z"/>
<path d="M5542 2408 c-42 -206 -190 -962 -198 -1015 l-6 -42 53 -15 c86 -26
296 -64 414 -75 267 -25 254 -25 265 1 5 13 39 178 75 368 36 190 71 360 76
378 l11 34 142 -4 c131 -3 145 -5 199 -32 112 -55 153 -145 150 -336 -1 -149
-23 -241 -83 -361 -22 -44 -38 -84 -35 -89 3 -4 -6 -11 -20 -14 -14 -4 -25
-11 -25 -18 0 -6 -11 -21 -25 -34 -14 -13 -25 -28 -25 -34 0 -5 -6 -10 -14
-10 -7 0 -30 -13 -51 -30 -39 -31 -40 -38 -2 -19 18 9 20 9 10 -1 -12 -13 -54
-23 -173 -40 -136 -19 -823 5 -872 31 -10 5 -18 21 -18 35 0 18 -7 28 -21 31
-11 3 -18 11 -15 18 5 13 -14 25 -38 25 -14 0 -35 -86 -89 -367 -19 -95 -31
-177 -27 -183 5 -9 180 -10 636 -7 584 4 637 6 739 25 290 55 491 155 651 325
190 201 274 460 261 807 -6 167 -20 236 -67 335 -39 83 -77 133 -145 190 -44
38 -65 49 -93 50 -21 1 -57 8 -82 17 -86 31 -185 59 -217 61 -18 1 -33 6 -33
11 0 4 -11 6 -24 2 -12 -3 -26 -2 -30 2 -4 4 -20 8 -34 8 -15 1 -119 7 -232
13 -113 6 -350 11 -527 11 -302 0 -323 1 -332 18 -6 10 -8 28 -5 39 7 25 1 29
-52 37 l-41 7 -31 -153z"/>
<path d="M1626 2301 c-3 -5 1 -14 8 -20 10 -9 16 -9 21 -1 4 6 1 9 -7 8 -7 -2
-12 3 -10 10 2 14 -4 16 -12 3z"/>
<path d="M2381 1934 c-23 -9 -31 -25 -49 -85 -26 -88 -27 -95 -6 -103 8 -3 12
-10 9 -16 -13 -21 7 -8 46 30 47 46 59 49 59 18 1 -18 2 -20 9 -8 8 14 41 149
41 168 0 13 -76 10 -109 -4z"/>
<path d="M2140 1736 c0 -1 -20 -83 -45 -181 -25 -98 -44 -182 -43 -187 2 -5
12 22 23 61 10 39 22 71 26 71 13 0 15 -34 6 -70 -5 -19 -7 -51 -4 -72 5 -41
-5 -50 -41 -37 -16 6 -24 5 -27 -4 -20 -58 -155 -613 -152 -622 9 -21 233 -58
362 -59 137 0 210 18 325 82 77 43 201 164 249 245 66 112 111 275 110 402 -1
54 -2 57 -12 34 -7 -15 -18 -24 -26 -21 -8 3 -11 0 -7 -7 5 -7 1 -9 -8 -5 -9
3 -14 9 -11 13 2 4 -10 5 -28 3 -36 -5 -66 -31 -59 -51 3 -8 0 -11 -7 -7 -6 4
-11 0 -11 -11 0 -15 -3 -14 -16 5 -9 13 -14 34 -11 47 2 14 1 22 -4 20 -4 -3
-6 7 -5 22 4 39 -12 82 -38 97 -18 12 -86 23 -183 31 -11 1 -34 7 -50 14 -24
10 -68 17 -122 20 -8 1 -11 4 -8 8 4 3 2 12 -4 20 -8 9 -8 13 -1 13 7 0 9 7 5
17 -5 12 -3 14 8 9 8 -5 8 -2 -2 6 -15 12 -19 19 -19 34 0 3 -8 -4 -19 -17
-10 -13 -16 -30 -13 -38 3 -9 1 -12 -6 -7 -7 4 -12 2 -12 -6 0 -18 -54 -158
-61 -158 -3 0 -6 7 -6 15 0 8 5 15 10 15 5 0 -1 9 -14 19 -19 16 -22 22 -12
32 10 10 9 18 -9 36 -13 14 -17 23 -9 23 10 0 11 3 2 13 -6 8 -8 17 -4 20 3 4
1 7 -6 7 -10 0 -12 13 -6 55 3 30 4 55 1 55 -3 0 -6 -2 -6 -4z m446 -307 c36
-40 24 -148 -42 -376 -2 -10 1 -8 7 5 7 12 16 22 21 22 4 0 8 8 8 18 1 20 29
73 30 55 0 -7 4 -13 10 -13 5 0 7 7 4 15 -4 8 -1 21 4 28 7 8 7 18 2 27 -6 8
-10 20 -10 25 0 6 5 3 10 -5 5 -8 10 -10 10 -4 0 12 32 11 64 -2 15 -6 17 -4
11 6 -5 9 -4 11 4 6 15 -10 9 -31 -9 -31 -7 0 -14 -6 -16 -13 -1 -7 0 -8 3 -2
2 5 9 8 14 4 5 -3 6 -11 2 -17 -8 -12 -9 -17 -12 -38 0 -5 -5 -8 -10 -5 -5 4
-7 -4 -3 -16 3 -14 1 -19 -6 -14 -8 4 -10 2 -6 -7 3 -8 0 -18 -5 -22 -6 -3 -9
-10 -6 -14 2 -5 -4 -16 -15 -26 -11 -10 -20 -22 -20 -27 0 -17 -89 -125 -127
-156 -70 -54 -98 -63 -192 -63 -49 0 -101 5 -116 11 -23 9 -26 14 -20 38 3 15
9 42 12 60 3 18 14 37 25 43 18 10 19 8 13 -28 -8 -49 10 -24 23 33 59 246
114 376 194 457 40 40 53 47 86 47 27 0 45 -7 58 -21z"/>
<path d="M2640 1208 c0 -4 9 -8 19 -8 11 0 22 4 25 8 2 4 -6 8 -20 8 -13 0
-24 -4 -24 -8z"/>
<path d="M2637 1175 c-4 -8 -1 -17 5 -21 7 -4 8 -3 4 4 -4 7 -2 12 3 12 6 0
11 5 11 10 0 15 -17 12 -23 -5z"/>
<path d="M2315 1701 c-3 -5 -2 -12 3 -15 5 -3 9 1 9 9 0 17 -3 19 -12 6z"/>
<path d="M1056 1512 c-15 -81 -32 -163 -36 -182 -5 -19 -13 -60 -19 -90 -6
-30 -18 -89 -27 -130 -36 -166 -25 -245 45 -323 71 -79 84 -82 447 -85 256 -3
323 -1 331 10 6 7 33 126 59 263 73 387 74 392 59 372 -14 -19 -40 -22 -50 -6
-5 7 -25 8 -55 4 -31 -4 -63 -2 -91 8 -24 8 -78 25 -119 37 -41 13 -79 27 -84
32 -6 4 -16 8 -23 8 -7 0 -74 29 -148 65 -75 36 -142 65 -150 65 -8 0 -15 4
-15 9 0 5 -16 15 -36 21 -24 8 -40 22 -48 41 -11 26 -14 17 -40 -119z"/>
<path d="M3600 1449 c-24 -11 -47 -24 -50 -29 -5 -8 -33 -16 -63 -19 -5 -1 -5
-7 -1 -13 4 -7 4 -10 -1 -6 -4 4 -15 2 -23 -5 -13 -10 -14 -9 -7 2 4 7 -6 3
-24 -10 -17 -12 -31 -28 -31 -35 0 -7 -7 -20 -16 -28 -8 -9 -12 -16 -8 -16 4
0 -3 -11 -15 -24 -12 -13 -23 -30 -24 -37 -3 -21 -33 -60 -40 -53 -3 4 -9 -7
-13 -22 -11 -48 -65 -217 -81 -253 -8 -18 -16 -39 -18 -45 -13 -52 -17 -56
-49 -51 -17 2 -33 4 -36 6 -3 1 -8 1 -12 0 -16 -2 -7 18 10 22 16 4 16 5 -1 6
-15 1 -17 9 -13 69 2 37 7 85 10 107 9 57 -71 -220 -100 -348 l-6 -28 153 3
154 3 70 280 c73 291 107 382 165 449 55 62 126 90 171 66 10 -6 19 -7 19 -2
0 10 -44 32 -63 32 -7 0 -32 -10 -57 -21z"/>
<path d="M9161 1094 c-50 -200 -91 -383 -91 -406 0 -56 28 -100 76 -123 52
-25 171 -24 238 2 54 20 59 28 69 130 l6 52 -28 -5 c-32 -7 -61 16 -61 46 0
11 34 156 75 322 41 167 77 313 80 325 5 21 4 22 -134 21 l-139 -1 -91 -363z
m212 280 c10 -11 -5 -34 -22 -34 -23 0 -31 9 -24 26 5 14 34 19 46 8z"/>
<path d="M8143 1433 c-7 -2 -13 -19 -13 -38 0 -60 -43 -67 -58 -10 -10 36 -34
47 -30 13 2 -12 7 -29 11 -35 5 -9 3 -11 -6 -7 -8 3 -18 21 -22 40 l-6 35 -97
-2 c-91 -2 -142 -12 -142 -30 0 -4 -9 -11 -20 -14 -11 -4 -18 -11 -15 -16 3
-5 0 -6 -7 -4 -8 3 -24 -6 -36 -20 -13 -14 -27 -23 -33 -19 -6 3 -25 -7 -42
-23 -18 -17 -40 -33 -49 -36 -9 -3 -34 -32 -55 -64 -76 -113 -115 -241 -117
-378 -1 -80 2 -97 27 -148 49 -99 132 -137 301 -137 108 0 203 17 304 52 l62
22 0 79 0 79 -32 -7 c-18 -4 -60 -16 -93 -28 -81 -28 -181 -29 -217 -2 -30 21
-62 91 -56 121 2 14 20 20 83 31 172 28 300 89 391 185 106 111 127 285 42
340 -29 19 -59 28 -75 21z m-185 -159 c31 -21 28 -68 -8 -130 -35 -62 -107
-104 -177 -104 -42 0 -43 1 -37 28 20 86 86 185 138 208 41 17 57 17 84 -2z"/>
<path d="M8875 1427 c-12 -7 -61 -12 -127 -12 -60 0 -108 -4 -108 -8 0 -5 -5
-5 -12 -1 -8 5 -9 2 -5 -9 3 -10 2 -17 -3 -17 -5 0 -7 -7 -4 -15 4 -8 1 -15
-6 -15 -8 0 -10 9 -6 25 4 14 2 25 -3 25 -16 0 -33 -29 -29 -48 7 -25 -39 -23
-58 3 -13 18 -17 19 -41 5 -36 -21 -92 -127 -100 -189 -12 -103 38 -172 178
-246 83 -43 103 -73 88 -131 -16 -60 -65 -88 -154 -89 -44 0 -83 6 -105 16
-75 35 -75 35 -125 -32 -25 -35 -45 -66 -45 -71 0 -22 131 -65 240 -78 202
-25 369 48 447 197 56 105 61 203 15 257 -22 25 -110 81 -142 91 -42 13 -100
85 -100 125 0 69 100 87 203 36 31 -15 61 -25 66 -21 6 3 37 45 71 93 l61 87
-53 17 c-63 20 -115 22 -143 5z"/>
<path d="M11389 1433 c-2 -17 -5 -49 -7 -71 -3 -34 -52 -27 -70 11 -7 15 -20
27 -28 27 -9 0 -12 -5 -8 -12 5 -8 2 -9 -10 -5 -10 4 -20 7 -22 7 -3 0 -3 4 0
9 3 4 -22 9 -55 10 -66 1 -95 -11 -176 -76 -23 -18 -45 -33 -50 -33 -4 0 -8
21 -9 48 0 26 -6 56 -12 67 -10 17 -11 14 -6 -21 7 -50 -12 -74 -60 -74 -45 0
-69 20 -70 61 -1 37 -1 37 -84 23 -29 -5 -33 -8 -28 -27 15 -51 18 -160 6
-238 -6 -46 -38 -191 -71 -322 -32 -131 -59 -244 -59 -253 0 -12 21 -14 137
-12 l137 3 61 245 c33 135 69 265 78 289 55 137 176 224 221 159 9 -12 16 -34
16 -49 0 -15 -34 -163 -75 -328 -41 -166 -75 -306 -75 -311 0 -6 57 -10 140
-10 137 0 140 0 145 23 3 12 41 168 85 346 45 181 80 346 80 373 0 70 -22 116
-64 133 -39 16 -65 19 -67 8z m-104 -73 c3 -5 1 -10 -4 -10 -6 0 -11 5 -11 10
0 6 2 10 4 10 3 0 8 -4 11 -10z"/>
<path d="M10404 1422 c3 -6 2 -13 -3 -16 -4 -3 -11 -19 -14 -35 -7 -33 -22
-41 -61 -34 -25 5 -27 8 -21 39 6 34 -8 48 -19 19 -8 -21 -25 -19 -20 3 5 15
-5 17 -108 16 -162 -1 -166 -2 -173 -23 -4 -13 -12 -17 -29 -14 -18 4 -30 -4
-51 -31 -27 -35 -28 -36 -48 -19 -19 17 -19 17 -13 -4 6 -17 3 -20 -11 -17
-29 8 -122 -98 -165 -186 -46 -94 -69 -191 -70 -295 -1 -107 15 -157 64 -211
103 -112 314 -94 432 37 24 27 47 49 51 49 4 0 5 -33 3 -74 -6 -90 -40 -166
-103 -231 -69 -70 -87 -78 -166 -77 -123 1 -265 64 -166 74 l32 3 -33 17 -32
17 -35 -54 c-40 -63 -75 -130 -75 -144 0 -15 149 -59 240 -70 122 -16 230 3
338 58 60 31 153 127 189 197 50 93 64 162 73 349 6 133 14 190 34 265 59 216
99 380 94 385 -3 3 -36 8 -73 12 -48 4 -66 3 -61 -5z m-124 -56 c0 -3 -4 -8
-10 -11 -5 -3 -10 -1 -10 4 0 6 5 11 10 11 6 0 10 -2 10 -4z m-67 -105 c9 -9
-40 -218 -72 -302 -12 -30 -37 -81 -56 -113 -19 -32 -35 -62 -35 -67 0 -16
-64 -49 -96 -49 -40 0 -51 14 -59 75 -7 56 20 203 54 296 46 123 121 185 211
174 24 -3 48 -9 53 -14z"/>
<path d="M5736 1112 c-9 -15 104 -27 251 -27 113 0 146 5 130 21 -12 12 -374
18 -381 6z"/>
<path d="M3943 1035 c-3 -9 -3 -18 -1 -21 3 -3 8 4 11 16 6 23 -1 27 -10 5z"/>
<path d="M3921 950 c-7 -28 -16 -48 -21 -45 -11 7 -24 -25 -21 -50 5 -34 -8
-12 -14 25 -4 25 -3 31 5 20 12 -18 13 0 1 19 -7 11 -11 10 -20 -6 -5 -11 -8
-23 -5 -26 3 -3 1 -8 -4 -11 -6 -3 -8 9 -6 32 l4 37 -15 -35 c-8 -19 -18 -43
-21 -52 -4 -10 -10 -15 -15 -12 -5 3 -9 2 -8 -3 4 -22 -2 -44 -10 -38 -5 3
-12 1 -15 -4 -3 -5 -41 -8 -85 -7 l-79 1 -20 -70 c-10 -38 -17 -73 -15 -77 8
-14 289 -9 300 5 6 6 18 48 27 92 10 44 27 117 38 163 11 46 18 85 16 87 -2 3
-10 -18 -17 -45z"/>
<path d="M4164 774 c8 -44 30 -79 70 -108 22 -17 46 -22 123 -25 134 -4 232
26 313 99 l35 31 -33 -23 c-28 -19 -46 -23 -100 -22 -96 2 -121 7 -127 22 -4
11 -8 12 -19 3 -11 -10 -16 -9 -23 4 -10 16 -83 33 -173 38 -25 1 -51 7 -59
11 -11 7 -13 2 -7 -30z"/>
<path d="M4787 740 c3 -19 12 -50 19 -69 13 -32 16 -33 51 -26 21 4 51 13 68
21 l30 14 -40 -7 c-77 -12 -95 -12 -95 3 0 12 5 12 23 4 21 -11 21 -10 3 4
-10 9 -23 13 -29 9 -6 -4 -8 3 -4 16 3 13 3 20 -1 17 -3 -4 -11 6 -18 21 -13
28 -13 28 -7 -7z"/>
</g>
</svg>
